<svg width="19" height="18" viewBox="0 0 19 18" fill="none" xmlns="http://www.w3.org/2000/svg">
<path fill-rule="evenodd" clip-rule="evenodd" d="M12.3691 1.5H6.36914C3.88386 1.5 1.86914 3.51472 1.86914 6V12C1.86914 14.4853 3.88386 16.5 6.36914 16.5H12.3691C14.8544 16.5 16.8691 14.4853 16.8691 12V6C16.8691 3.51472 14.8544 1.5 12.3691 1.5ZM3.36914 6C3.36914 4.34315 4.71229 3 6.36914 3H12.3691C14.026 3 15.3691 4.34315 15.3691 6V12C15.3691 13.6569 14.026 15 12.3691 15H6.36914C4.71229 15 3.36914 13.6569 3.36914 12V6ZM9.36914 12.75C7.29807 12.75 5.61914 11.0711 5.61914 9C5.61914 6.92893 7.29807 5.25 9.36914 5.25C11.4402 5.25 13.1191 6.92893 13.1191 9C13.1191 11.0711 11.4402 12.75 9.36914 12.75ZM9.36914 11.25C10.6118 11.25 11.6191 10.2426 11.6191 9C11.6191 7.75736 10.6118 6.75 9.36914 6.75C8.1265 6.75 7.11914 7.75736 7.11914 9C7.11914 10.2426 8.1265 11.25 9.36914 11.25ZM13.8691 5.25C13.8691 5.66421 13.5334 6 13.1191 6C12.7049 6 12.3691 5.66421 12.3691 5.25C12.3691 4.83579 12.7049 4.5 13.1191 4.5C13.5334 4.5 13.8691 4.83579 13.8691 5.25Z" fill="#222222"/>
</svg>
