<svg width="168" height="14" viewBox="0 0 168 14" fill="none" xmlns="http://www.w3.org/2000/svg">
<path d="M13.9891 13L13.9721 1.1H12.1531L7.51214 8.988L2.78614 1.1H0.967141V13H3.07514V5.214L6.98514 11.64H7.97114L11.8811 5.112L11.8981 13H13.9891ZM26.6215 13H28.9335L23.5615 1.1H21.3855L16.0305 13H18.3085L19.4815 10.246H25.4315L26.6215 13ZM20.2295 8.512L22.4565 3.31L24.7005 8.512H20.2295ZM41.1229 13L38.3859 9.09C40.0009 8.461 40.9189 7.135 40.9189 5.333C40.9189 2.698 38.9809 1.1 35.8529 1.1H30.9569V13H33.1669V9.532H35.8529C36.0059 9.532 36.1589 9.532 36.3119 9.515L38.7429 13H41.1229ZM38.6919 5.333C38.6919 6.829 37.6889 7.713 35.7509 7.713H33.1669V2.97H35.7509C37.6889 2.97 38.6919 3.837 38.6919 5.333ZM43.9014 13H46.1114V1.1H43.9014V13ZM58.7481 13H61.0601L55.6881 1.1H53.5121L48.1571 13H50.4351L51.6081 10.246H57.5581L58.7481 13ZM52.3561 8.512L54.5831 3.31L56.8271 8.512H52.3561ZM71.9808 13.17C75.2448 13.17 76.7918 11.538 76.7918 9.634C76.7918 5.265 69.7368 6.914 69.7368 4.381C69.7368 3.48 70.4848 2.766 72.3208 2.766C73.3578 2.766 74.5308 3.072 75.6018 3.701L76.2988 1.984C75.2618 1.304 73.7658 0.929999 72.3378 0.929999C69.0738 0.929999 67.5438 2.562 67.5438 4.483C67.5438 8.903 74.6158 7.22 74.6158 9.787C74.6158 10.671 73.8338 11.334 71.9808 11.334C70.5188 11.334 69.0058 10.79 68.0538 10.025L67.2888 11.742C68.2748 12.592 70.1278 13.17 71.9808 13.17ZM92.5152 13L92.4982 1.1H90.6792L86.0382 8.988L81.3122 1.1H79.4932V13H81.6012V5.214L85.5112 11.64H86.4972L90.4072 5.112L90.4242 13H92.5152ZM96.2395 13H98.4495V1.1H96.2395V13ZM112.344 13L109.607 9.09C111.222 8.461 112.14 7.135 112.14 5.333C112.14 2.698 110.202 1.1 107.074 1.1H102.178V13H104.388V9.532H107.074C107.227 9.532 107.38 9.532 107.533 9.515L109.964 13H112.344ZM109.913 5.333C109.913 6.829 108.91 7.713 106.972 7.713H104.388V2.97H106.972C108.91 2.97 109.913 3.837 109.913 5.333ZM123.504 1.1V9.158L116.942 1.1H115.123V13H117.316V4.942L123.878 13H125.697V1.1H123.504ZM134.955 13.17C138.644 13.17 141.364 10.586 141.364 7.05C141.364 3.514 138.644 0.929999 134.955 0.929999C131.266 0.929999 128.546 3.531 128.546 7.05C128.546 10.569 131.266 13.17 134.955 13.17ZM134.955 11.232C132.558 11.232 130.773 9.481 130.773 7.05C130.773 4.619 132.558 2.868 134.955 2.868C137.352 2.868 139.137 4.619 139.137 7.05C139.137 9.481 137.352 11.232 134.955 11.232ZM152.504 1.1L148.509 10.28L144.548 1.1H142.151L147.353 13H149.529L154.714 1.1H152.504ZM165.006 13H167.318L161.946 1.1H159.77L154.415 13H156.693L157.866 10.246H163.816L165.006 13ZM158.614 8.512L160.841 3.31L163.085 8.512H158.614Z" fill="black"/>
</svg>
