<svg width="197" height="47" viewBox="0 0 197 47" fill="none" xmlns="http://www.w3.org/2000/svg">
<rect width="197" height="47" fill="#E5E5E5"/>
<g clip-path="url(#clip0_0_1)">
<rect width="1920" height="5356" transform="translate(-861 -9)" fill="white"/>
<rect width="1920" height="64" transform="translate(-861 -9)" fill="white"/>
<rect x="-861" y="-9" width="1920" height="64" fill="white"/>
<path fill-rule="evenodd" clip-rule="evenodd" d="M190.785 30.3823C190.452 30.9043 190.12 31.4743 189.692 32.0913C189.265 32.7083 188.791 33.3723 188.268 34.0373C187.747 34.7493 187.272 35.3663 186.749 35.8883C186.227 36.4583 185.8 36.9323 185.372 37.2643C184.945 37.6443 184.565 37.8343 184.233 37.8343C184.138 37.8343 184.09 37.7873 184.09 37.6443C184.09 37.4073 184.185 36.9793 184.375 36.3623C184.564 35.7453 184.85 35.0803 185.182 34.3213C185.514 33.5613 185.894 32.7543 186.321 31.9473C186.749 31.1403 187.223 30.3813 187.698 29.6683C188.173 29.0043 188.647 28.4343 189.17 28.0073C189.691 27.5803 190.167 27.3423 190.594 27.3423C190.831 27.3423 190.974 27.4373 191.116 27.6273C191.211 27.8163 191.305 28.0543 191.353 28.2913C191.401 28.5763 191.448 28.9083 191.448 29.2413C191.307 29.4803 191.117 29.8603 190.785 30.3823ZM190.927 37.4073C190.975 36.9803 191.117 36.4583 191.355 35.8413C191.544 35.2243 191.782 34.5593 192.115 33.7993C192.399 33.0403 192.684 32.3283 193.016 31.6153C193.301 30.9033 193.585 30.2863 193.823 29.7173C194.061 29.1953 194.203 28.8153 194.299 28.6253C194.346 28.4353 194.299 28.2923 194.203 28.1503C194.108 28.0073 193.966 27.9133 193.823 27.8173C193.634 27.7223 193.444 27.6283 193.302 27.5803C193.159 27.5333 193.017 27.5333 192.922 27.5803C192.874 27.6283 192.685 27.9133 192.305 28.4823C192.257 28.0553 192.068 27.6283 191.783 27.1533C191.451 26.7263 190.834 26.4883 189.932 26.4883C188.84 26.4883 187.843 26.8683 186.941 27.6283C186.04 28.3873 185.232 29.2893 184.568 30.3813C183.856 31.4733 183.334 32.5653 183.002 33.7513C182.622 34.9383 182.433 35.9353 182.48 36.7423C182.528 37.7393 182.86 38.4033 183.477 38.7363C183.952 38.9733 184.474 38.9733 185.091 38.6893C185.708 38.4043 186.278 37.9293 186.895 37.3123C187.511 36.6953 188.082 35.9833 188.699 35.1763C189.316 34.3693 189.838 33.5623 190.312 32.7553C190.028 33.4673 189.791 34.1793 189.6 34.8913C189.411 35.6033 189.316 36.2673 189.316 36.8373C189.268 37.4073 189.363 37.8813 189.6 38.2613C189.79 38.6883 190.122 38.9263 190.645 38.9733C191.214 39.0683 191.784 38.9263 192.354 38.5463C192.875 38.2133 193.446 37.7393 193.967 37.1223C194.489 36.5523 195.012 35.8883 195.533 35.1763C196.055 34.4643 196.53 33.8473 196.958 33.2303H196.056C195.296 34.2273 194.68 35.0343 194.158 35.6513C193.636 36.2683 193.113 36.7903 192.544 37.2653C191.975 37.7873 191.5 38.0253 191.12 38.0253C190.927 38.0253 190.88 37.8353 190.927 37.4073Z" fill="black"/>
<path fill-rule="evenodd" clip-rule="evenodd" d="M176.972 26.9642C176.876 26.6322 176.687 26.4892 176.45 26.4892C176.26 26.4892 176.022 26.6792 175.785 27.0112C175.501 27.3432 175.216 27.8182 174.931 28.3402C174.647 28.8622 174.362 29.4322 174.124 30.0482C173.84 30.6652 173.602 31.2352 173.46 31.7572C173.08 32.9912 172.89 34.0832 172.843 34.9852C172.795 35.8872 172.795 36.6462 172.938 37.2632C173.081 37.8802 173.27 38.3552 173.507 38.6392C173.744 38.9242 174.029 39.0662 174.267 39.0662C174.884 39.0192 175.548 38.7342 176.356 38.1652C177.116 37.6432 177.875 36.9312 178.682 36.0762C179.489 35.2222 180.248 34.2722 181.007 33.1802C181.719 32.0892 182.384 31.0442 182.953 29.9522C183.475 28.8602 183.902 27.8632 184.187 26.8672C184.424 25.9182 184.472 25.1112 184.33 24.4462C184.282 24.2092 184.187 24.0192 184.045 23.8762C183.902 23.7342 183.713 23.5912 183.524 23.4492C183.286 23.3072 183.048 23.2122 182.716 23.1172C182.859 23.8292 182.764 24.6362 182.479 25.6332C182.194 26.6302 181.815 27.6742 181.292 28.7662C180.77 29.8572 180.152 30.9502 179.44 32.0412C178.728 33.1332 178.064 34.1302 177.447 34.9842C176.782 35.8862 176.165 36.5982 175.642 37.1202C175.121 37.6892 174.693 37.9742 174.455 37.9742C174.266 38.0692 174.171 37.9272 174.123 37.5472C174.075 37.2142 174.123 36.6922 174.218 36.0752C174.313 35.4582 174.455 34.7932 174.693 33.9862C174.883 33.1792 175.121 32.4202 175.358 31.6122C175.595 30.8532 175.88 30.1412 176.212 29.4292C176.497 28.7642 176.781 28.2422 177.066 27.8152C177.067 27.5812 177.019 27.2972 176.972 26.9642Z" fill="black"/>
<path fill-rule="evenodd" clip-rule="evenodd" d="M166.67 30.2398C166.67 29.6228 166.766 29.1008 166.908 28.5788C167.05 28.1038 167.24 27.7248 167.477 27.3918C167.714 27.1068 167.999 26.9648 168.331 26.9648C168.758 26.9648 168.995 27.1548 169.138 27.5348C169.281 27.9618 169.281 28.4838 169.186 29.1008C169.091 29.7178 168.901 30.4298 168.616 31.2368C168.332 32.0438 168 32.8028 167.572 33.5628C167.335 33.1358 167.097 32.6608 166.955 32.1388C166.766 31.5218 166.67 30.8578 166.67 30.2398ZM166.908 34.7018C166.291 35.6988 165.626 36.5538 164.914 37.1708C164.202 37.8358 163.585 38.1198 162.968 38.0248C162.541 37.9768 162.304 37.5978 162.256 36.9328C162.208 36.3158 162.351 35.5558 162.588 34.6548C162.825 33.7528 163.157 32.8508 163.633 31.9488C164.108 31.0468 164.677 30.2398 165.294 29.6228C165.247 30.0498 165.199 30.5248 165.247 30.9998C165.294 31.4748 165.389 31.9488 165.531 32.3758C165.817 33.2778 166.291 34.0858 166.908 34.7018ZM169.376 35.0818C169.187 35.0348 168.996 34.9388 168.855 34.8448C169.376 33.9908 169.804 33.0888 170.136 32.1388C170.468 31.1888 170.611 30.2868 170.611 29.4808C170.564 28.6738 170.374 27.9618 169.947 27.3448C169.519 26.7748 168.855 26.4428 167.953 26.3008C167.526 26.2538 167.099 26.3478 166.766 26.5858C166.434 26.8708 166.101 27.2508 165.864 27.6768C165.817 27.6768 165.769 27.6768 165.769 27.6768C165.721 27.7248 165.674 27.7248 165.626 27.7248C165.009 27.8668 164.439 28.1998 163.965 28.6738C163.443 29.1488 163.016 29.6708 162.636 30.2398C162.256 30.8568 161.972 31.4738 161.734 32.0918C161.497 32.7558 161.307 33.3258 161.213 33.8478C161.07 34.8448 161.023 35.6518 161.07 36.2678C161.118 36.9328 161.307 37.4548 161.545 37.8348C161.782 38.2138 162.067 38.4998 162.447 38.6418C162.779 38.8318 163.206 38.9268 163.634 38.9268C164.441 38.9268 165.248 38.5938 166.055 37.9768C166.862 37.3598 167.621 36.6008 168.333 35.6508C168.808 35.8878 169.377 35.9838 170.089 35.9838C170.706 35.9358 171.277 35.7938 171.751 35.5088C172.226 35.2238 172.652 34.8918 172.984 34.5598C173.364 34.1798 173.696 33.7528 174.029 33.2308H173.127C172.843 33.6578 172.51 33.9898 172.178 34.3228C171.893 34.5598 171.561 34.7978 171.181 34.9878C170.801 35.2248 170.422 35.2728 169.994 35.2248C169.756 35.1768 169.519 35.1298 169.376 35.0818Z" fill="black"/>
<path fill-rule="evenodd" clip-rule="evenodd" d="M158.506 28.4844C158.174 29.1964 157.746 30.0984 157.225 31.1434C156.703 32.1874 156.133 33.2794 155.611 34.4184C155.089 35.5104 154.757 36.4604 154.614 37.2194C154.566 37.7894 154.566 38.2164 154.709 38.5484C154.852 38.8804 155.231 39.0234 155.943 39.0234C156.512 39.0234 157.083 38.8334 157.652 38.4534C158.222 38.0744 158.792 37.5994 159.313 37.0294C159.835 36.4604 160.31 35.7954 160.833 35.1304C161.354 34.4184 161.83 33.8014 162.257 33.1844H161.355C160.643 34.1814 160.026 34.9884 159.504 35.6054C158.982 36.2224 158.459 36.7444 157.938 37.2664C157.368 37.7884 156.893 38.0264 156.513 38.0264C156.418 38.0264 156.418 37.9314 156.466 37.7894C156.751 36.9824 157.13 36.0804 157.558 35.1784C157.985 34.2764 158.412 33.4224 158.839 32.5204C159.267 31.6184 159.599 30.7644 159.931 29.9574C160.216 29.1504 160.359 28.4854 160.359 27.8684C160.359 27.3464 160.263 26.9194 160.122 26.6814C159.932 26.4444 159.553 26.3484 159.03 26.4444C158.128 26.5874 156.846 27.4884 155.232 29.1024C153.618 30.7164 151.91 32.8994 150.105 35.6534C150.058 35.7004 150.153 35.5104 150.343 35.1784C150.485 34.8454 150.722 34.3714 151.007 33.8494C151.292 33.3274 151.624 32.7104 151.956 32.0454C152.288 31.3804 152.573 30.7644 152.905 30.1474C153.238 29.5304 153.475 29.0084 153.713 28.5814C153.951 28.1544 154.093 27.8694 154.14 27.7274C154.283 27.3944 154.283 27.1574 154.188 26.9674C154.045 26.8254 153.903 26.6824 153.666 26.5884C153.429 26.4934 153.144 26.4454 152.717 26.3984C152.669 26.4454 152.622 26.5404 152.48 26.6834C152.338 26.8264 152.1 27.2534 151.72 27.9654C151.293 28.6774 150.771 29.8164 150.059 31.3354C149.347 32.8544 148.35 34.9904 147.163 37.7914C147.02 38.0764 147.02 38.3134 147.115 38.5034C147.163 38.6934 147.305 38.8354 147.542 38.8834C147.732 38.9784 147.97 39.0254 148.255 38.9784C148.492 38.9784 148.73 38.9314 148.967 38.8834C149.062 38.6934 149.347 38.2664 149.774 37.6014C150.202 36.9844 150.723 36.2254 151.34 35.3704C151.957 34.5154 152.622 33.6614 153.334 32.7124C154.046 31.7624 154.758 30.9084 155.47 30.1014C156.135 29.2944 156.752 28.6774 157.368 28.1554C157.938 27.6334 158.365 27.3954 158.697 27.3954C158.934 27.3924 158.838 27.7724 158.506 28.4844Z" fill="black"/>
<path fill-rule="evenodd" clip-rule="evenodd" d="M140.326 33.2332C140.801 32.5212 141.275 31.8092 141.703 31.1452C142.035 30.5752 142.415 30.0052 142.795 29.4362C143.175 28.9142 143.459 28.4862 143.696 28.1542C143.934 28.5812 144.218 28.7712 144.645 28.7712C145.025 28.7712 145.31 28.7232 145.453 28.6282C144.931 29.6252 144.456 30.6222 144.076 31.5242C143.744 32.3312 143.412 33.1852 143.127 33.9922C142.842 34.8462 142.652 35.6062 142.605 36.2232C142.558 37.1722 142.605 37.8842 142.795 38.3112C142.938 38.7862 143.412 39.0232 144.124 39.0232C144.456 39.0232 144.788 38.9282 145.216 38.6912C145.596 38.4532 145.975 38.1692 146.403 37.7892C146.783 37.4562 147.163 37.0292 147.542 36.6022C147.922 36.1752 148.255 35.7952 148.587 35.3682C148.824 35.0832 149.015 34.7982 149.204 34.5612C149.393 34.3242 149.584 34.0862 149.726 33.8962C149.868 33.6592 150.01 33.4692 150.153 33.2312H149.251C149.109 33.4212 149.015 33.6112 148.872 33.7532C148.635 34.1332 148.302 34.5132 147.97 34.9402C147.685 35.2732 147.401 35.6522 147.069 35.9852C146.736 36.3642 146.452 36.6962 146.119 36.9822C145.787 37.3142 145.455 37.5522 145.123 37.7422C144.79 37.9312 144.553 38.0272 144.315 38.0272C144.077 38.0272 144.031 37.7422 144.172 37.1732C144.315 36.6032 144.552 35.8912 144.885 34.9892C145.217 34.0872 145.644 33.1372 146.118 32.0462C146.593 31.0022 147.068 30.0052 147.542 29.0082C147.78 28.4862 147.875 28.1062 147.827 27.9162C147.732 27.7732 147.542 27.6782 147.306 27.6782C147.021 27.7262 146.689 27.7732 146.356 27.8682C145.976 28.0112 145.644 28.0582 145.312 28.1052C144.98 28.1532 144.743 28.1052 144.6 27.9632C144.41 27.8202 144.363 27.5362 144.505 27.1092C144.552 26.9662 144.647 26.7292 144.837 26.4442C144.98 26.2072 145.169 25.9222 145.312 25.6372C145.455 25.4002 145.644 25.1622 145.787 24.9252C145.93 24.7352 145.976 24.6402 145.976 24.5922C145.976 24.3552 145.929 24.1182 145.787 23.9282C145.645 23.7382 145.455 23.5482 145.312 23.4062C145.123 23.2642 144.932 23.1692 144.79 23.1212C144.601 23.0742 144.506 23.0742 144.458 23.1212C144.221 23.2642 143.937 23.5482 143.698 23.8802C143.414 24.2132 143.177 24.5922 143.034 25.0202C142.891 25.4472 142.797 25.9222 142.797 26.3492C142.797 26.7762 142.94 27.2042 143.177 27.5832C142.844 28.1052 142.464 28.6272 142.085 29.1972C141.752 29.7192 141.325 30.2882 140.897 31.0012C140.47 31.7132 139.948 32.4252 139.426 33.2322H140.326V33.2332Z" fill="black"/>
<path fill-rule="evenodd" clip-rule="evenodd" d="M139.944 23.7389C140.181 23.3589 140.372 22.9789 140.561 22.5519C140.751 22.1719 140.941 21.8399 141.083 21.5079C141.226 21.1749 141.272 20.9859 141.32 20.8909C141.368 20.8439 141.225 20.7009 140.988 20.5579C140.751 20.4159 140.419 20.3689 140.086 20.4629C139.849 20.5099 139.564 20.6999 139.326 21.0319C139.042 21.3649 138.805 21.7439 138.567 22.1719C138.33 22.5989 138.092 23.0259 137.95 23.4529C137.808 23.8799 137.665 24.2129 137.618 24.4499C137.57 24.5449 137.618 24.6869 137.713 24.8299C137.76 25.0199 137.902 25.1619 138.045 25.2569C138.188 25.3519 138.33 25.3519 138.567 25.3039C138.804 25.2559 139.042 25.1139 139.326 24.7819C139.518 24.4989 139.707 24.1659 139.944 23.7389Z" fill="black"/>
<path fill-rule="evenodd" clip-rule="evenodd" d="M134.393 37.3124C134.488 36.8854 134.678 36.2684 134.915 35.5564C135.152 34.8444 135.437 34.0854 135.769 33.2304C136.101 32.3764 136.481 31.5684 136.813 30.7624C137.145 30.0024 137.478 29.3384 137.762 28.7204C137.999 28.1514 138.19 27.7714 138.284 27.5334C138.332 27.3434 138.284 27.2014 138.189 27.0584C138.094 26.9154 137.952 26.8214 137.809 26.7254C137.62 26.6304 137.429 26.5354 137.287 26.4884C137.145 26.4414 137.003 26.4414 136.908 26.4884C136.861 26.5354 136.623 26.8214 136.291 27.4384C135.958 28.0554 135.579 28.7674 135.152 29.6684C134.725 30.5704 134.298 31.5204 133.918 32.5644C133.491 33.6084 133.206 34.6054 133.016 35.5074C132.826 36.4094 132.779 37.2164 132.921 37.8334C133.063 38.4984 133.443 38.8774 134.06 38.9724C134.63 39.0674 135.199 38.9254 135.769 38.5454C136.291 38.2124 136.861 37.7384 137.382 37.1214C137.904 36.5514 138.427 35.8874 138.948 35.1754C139.47 34.4634 139.945 33.8464 140.373 33.2294H139.471C138.712 34.2264 138.095 35.0334 137.573 35.6504C137.051 36.2674 136.529 36.7894 135.959 37.2644C135.39 37.7864 134.915 38.0244 134.535 38.0244C134.345 38.0254 134.298 37.7874 134.393 37.3124Z" fill="black"/>
<path fill-rule="evenodd" clip-rule="evenodd" d="M127.083 38.5956C127.178 38.8806 127.557 39.0226 128.269 39.0226C128.839 39.0226 129.409 38.8326 129.978 38.4526C130.547 38.0736 131.117 37.5986 131.639 37.0286C132.161 36.4596 132.636 35.8416 133.158 35.1296C133.68 34.4656 134.155 33.8486 134.582 33.2316H133.68C132.968 34.2286 132.351 35.0356 131.829 35.6526C131.307 36.2696 130.785 36.7916 130.263 37.2666C129.693 37.7886 129.219 38.0266 128.839 38.0266C128.744 38.0266 128.744 37.9316 128.792 37.7896C129.077 36.9826 129.457 36.0806 129.884 35.1786C130.311 34.2766 130.786 33.4226 131.213 32.5206C131.64 31.6666 131.973 30.8586 132.305 30.0516C132.637 29.2446 132.78 28.5806 132.78 27.9636C132.78 27.3466 132.59 26.8716 132.21 26.5876C131.783 26.3496 131.213 26.3496 130.502 26.5876C129.79 26.8246 128.888 27.3946 127.891 28.2956C126.847 29.1976 125.707 30.5266 124.426 32.2356C124.853 31.3336 125.185 30.5276 125.423 29.7676C125.66 29.0086 125.802 28.3916 125.802 27.8686C125.755 27.1566 125.517 26.6816 125.043 26.4446C124.568 26.2076 123.904 26.3496 123.001 26.8246C122.099 27.3466 121.055 28.2486 119.821 29.5306C118.587 30.8126 117.21 32.6636 115.691 34.9896C115.644 35.0366 115.786 34.7526 116.119 34.0406C116.451 33.3756 116.83 32.6166 117.258 31.7616C117.685 30.9076 118.065 30.1006 118.445 29.2936C118.825 28.4866 119.062 28.0116 119.157 27.8696C119.3 27.5376 119.3 27.3006 119.252 27.1106C119.157 26.9206 119.015 26.7776 118.872 26.6836C118.682 26.5886 118.397 26.4936 118.065 26.4466C118.018 26.4936 117.97 26.5896 117.828 26.7316C117.686 26.8746 117.448 27.3016 117.069 28.0136C116.642 28.7256 116.12 29.8646 115.407 31.3836C114.695 32.9026 113.698 35.0386 112.511 37.7926C112.368 38.0776 112.368 38.3146 112.463 38.5046C112.511 38.6946 112.653 38.8366 112.89 38.8846C113.08 38.9796 113.318 39.0266 113.602 38.9796C113.839 38.9796 114.077 38.9326 114.314 38.8846C114.409 38.6946 114.694 38.2676 115.121 37.6026C115.548 36.9856 116.07 36.2266 116.687 35.3716C117.304 34.5166 117.969 33.6156 118.681 32.6656C119.393 31.7166 120.058 30.8616 120.77 30.0546C121.435 29.2956 122.051 28.6306 122.621 28.1086C123.19 27.5866 123.665 27.3496 123.997 27.3496C124.187 27.3496 124.234 27.5396 124.187 27.8716C124.092 28.2046 123.902 28.6786 123.665 29.2016C123.427 29.7706 123.095 30.4356 122.763 31.1476C122.43 31.8596 122.051 32.6186 121.719 33.3306C121.387 34.0426 121.054 34.7546 120.77 35.4196C120.437 36.1316 120.248 36.7006 120.105 37.2236C119.963 37.6986 119.963 38.0776 120.105 38.4106C120.248 38.7436 120.58 38.9326 121.007 38.9326C121.054 38.9326 121.054 38.9326 121.054 38.8856V38.9326C121.054 38.8856 121.054 38.8856 121.102 38.8376C121.149 38.8376 121.149 38.7906 121.197 38.7426L121.292 38.5526C121.529 38.2196 121.909 37.6986 122.384 36.9866C122.859 36.2746 123.381 35.5146 123.998 34.6606C124.615 33.8536 125.232 32.9986 125.897 32.0976C126.562 31.2436 127.226 30.4356 127.843 29.7236C128.46 29.0116 129.03 28.4416 129.552 27.9676C130.074 27.5406 130.453 27.3026 130.786 27.3026C131.119 27.3026 131.119 27.6816 130.833 28.3946C130.501 29.1536 130.121 30.0556 129.599 31.1006C129.077 32.1926 128.555 33.2846 128.033 34.4236C127.511 35.6106 127.131 36.5596 126.989 37.3666C126.94 37.9306 126.94 38.3586 127.083 38.5956Z" fill="black"/>
<path fill-rule="evenodd" clip-rule="evenodd" d="M112.936 23.6892C113.411 23.8312 113.98 23.8312 114.597 23.6892C115.214 23.5462 115.927 23.3092 116.686 22.9292C117.445 22.5502 118.252 22.0272 119.059 21.3152C120.673 19.9382 122.097 18.4672 123.284 16.9002C124.471 15.3342 125.373 13.8152 125.942 12.2482C126.464 10.6812 126.654 9.21019 126.417 7.83319C126.179 6.45719 125.42 5.31719 124.186 4.36819C123.237 3.60819 122.05 3.08617 120.579 2.84817C119.107 2.61117 117.588 2.61117 115.927 2.80117C114.265 2.99117 112.604 3.37018 110.895 3.94018C109.186 4.55718 107.572 5.26917 106.101 6.17117C104.155 7.35817 102.446 8.68718 101.022 10.0642C99.5982 11.4882 98.4593 12.9122 97.5573 14.2892C96.6553 15.7132 95.9903 17.0902 95.5633 18.3712C95.1363 19.7002 94.9943 20.8872 95.0883 21.8842C95.1833 22.8812 95.4672 23.8782 95.9902 24.8272C96.4652 25.8242 97.0822 26.7732 97.8412 27.7232C98.5532 28.6722 99.4082 29.6212 100.357 30.5712C101.306 31.5682 102.303 32.5172 103.3 33.5142C104.297 34.5112 105.104 35.4132 105.721 36.1252C106.29 36.8842 106.718 37.5492 107.002 38.0712C107.287 38.5932 107.477 39.0682 107.571 39.4002C107.619 39.7792 107.666 40.0652 107.666 40.3022C107.666 40.4922 107.571 40.8242 107.429 41.2512C107.287 41.7262 106.954 42.2012 106.527 42.6752C106.1 43.1972 105.483 43.6242 104.723 44.0512C103.963 44.4782 103.014 44.7162 101.827 44.8112C100.64 44.9062 99.4532 44.8112 98.2662 44.5262C97.0792 44.2412 96.0352 43.9092 95.0382 43.4822C94.0412 43.0552 93.2353 42.6752 92.5703 42.2482C91.8593 41.8682 91.4312 41.6312 91.1942 41.4882C90.7672 41.2512 90.4352 41.2032 90.1972 41.2512C90.0552 41.2992 89.9602 41.3462 89.8652 41.4412C90.4822 42.1062 91.2893 42.7232 92.3813 43.2922C93.4253 43.9092 94.5173 44.3842 95.7043 44.8122C96.8913 45.2392 98.0303 45.5712 99.1693 45.8092C100.309 46.0462 101.258 46.1892 101.97 46.1892C103.394 46.1892 104.628 45.9992 105.673 45.5722C106.717 45.1932 107.571 44.6702 108.236 44.0532C108.853 43.4362 109.28 42.6772 109.517 41.8692C109.755 41.0622 109.755 40.2552 109.517 39.4482C109.327 38.6412 108.995 37.8342 108.473 37.1222C107.951 36.4102 107.239 35.6502 106.431 34.7482C105.577 33.8942 104.58 32.8492 103.393 31.6632C102.206 30.4762 100.83 29.0052 99.3102 27.2482C98.3612 26.1082 97.7443 24.9222 97.5063 23.6882C97.2693 22.4542 97.2693 21.2192 97.5543 19.9852C97.7913 18.7982 98.2652 17.5642 98.9772 16.3772C99.6892 15.1902 100.496 14.0992 101.446 13.0072C102.395 11.9152 103.44 10.9182 104.531 10.0162C105.622 9.11417 106.715 8.35518 107.806 7.69018C109.514 6.69318 111.224 5.88616 112.932 5.26916C114.641 4.69916 116.207 4.31918 117.632 4.08218C119.293 3.84518 120.622 3.94018 121.667 4.27218C122.711 4.65218 123.471 5.22217 123.993 5.93417C124.468 6.64617 124.705 7.54819 124.705 8.54419C124.658 9.54119 124.42 10.5862 123.945 11.6302C122.853 14.0982 121.572 16.0922 120.195 17.5632C118.818 19.0822 117.489 20.2692 116.255 21.0762C114.783 22.0732 113.312 22.7382 111.84 23.1182C112.082 23.4042 112.462 23.5942 112.936 23.6892Z" fill="black"/>
<path fill-rule="evenodd" clip-rule="evenodd" d="M7.74253 31.5809C7.60053 31.7229 7.41053 31.8179 7.17353 31.9599C6.98353 32.0549 6.74652 32.1499 6.46152 32.1969C6.12952 32.2919 5.74955 32.3399 5.32255 32.3399C4.89555 32.3399 4.51554 32.1969 4.08854 31.9599C3.66154 31.7229 3.32853 31.343 2.99653 30.868C2.66353 30.441 2.42654 29.871 2.28454 29.207C2.14154 28.59 2.09453 27.831 2.18953 27.023C2.28453 26.216 2.61652 25.124 3.13852 23.795C3.66052 22.466 4.42054 20.995 5.46454 19.38C6.50854 17.814 7.83852 16.1519 9.49952 14.3959C11.1615 12.6869 13.1545 11.025 15.4805 9.45897C16.4775 8.79397 17.5225 8.12995 18.6135 7.46495C19.7055 6.84795 20.7495 6.27796 21.7465 5.75596C22.7435 5.28096 23.5975 4.90195 24.3575 4.56895C25.1165 4.23595 25.6865 4.09394 26.0185 4.09394C26.4455 4.09394 26.7785 4.23595 26.9205 4.56895C27.0625 4.90095 27.0625 5.42296 26.8255 6.13496C26.7785 6.32496 26.4935 6.98895 26.0185 8.12895C25.4965 9.26795 24.8795 10.692 24.0725 12.449C23.2655 14.205 22.4115 16.151 21.4145 18.287C20.4175 20.471 19.3725 22.702 18.3295 24.933C15.9085 30.202 13.1555 36.088 10.1175 42.686C10.1175 42.923 10.1645 43.161 10.3075 43.351C10.4025 43.494 10.5445 43.684 10.7825 43.873C11.0195 44.063 11.3525 44.206 11.7795 44.3C14.6285 39.696 17.3815 35.2809 20.0395 31.056C21.1785 29.2519 22.3655 27.401 23.5525 25.502C24.7395 23.65 25.9265 21.799 27.0655 20.0429C28.2045 18.2869 29.2965 16.578 30.3405 15.011C31.3845 13.444 32.2865 12.115 33.0935 10.976C33.9945 9.64696 34.9445 8.41296 35.9415 7.22596C36.8915 6.08596 37.7935 5.08997 38.6475 4.23497C39.5015 3.37997 40.2615 2.71595 40.8785 2.19395C41.4955 1.71895 41.9225 1.48194 42.1605 1.52894C42.3035 1.52894 42.3505 1.71895 42.3035 2.09895C42.2555 2.47795 42.1135 3.09596 41.8285 3.90196C41.4965 4.70896 41.0695 5.80096 40.4525 7.13096C39.8355 8.45996 38.9805 10.0739 37.9365 12.0199C37.4145 13.0169 36.8455 14.061 36.2285 15.248C35.6115 16.435 34.9465 17.669 34.3295 18.951C33.6645 20.233 33.0005 21.5619 32.3835 22.8909C31.7185 24.2199 31.1015 25.5019 30.4845 26.7359C29.0605 29.6319 27.6365 32.622 26.1645 35.66C26.1175 35.85 26.1645 36.04 26.2595 36.182C26.3075 36.325 26.4495 36.467 26.5925 36.562C26.7355 36.705 26.9725 36.799 27.3045 36.847C30.2945 33.43 33.0475 30.297 35.5635 27.401C36.6555 26.167 37.6995 24.9329 38.7915 23.6979C39.8355 22.5109 40.8325 21.3719 41.7345 20.3269C42.6365 19.2829 43.4435 18.381 44.1555 17.621C44.8205 16.862 45.2945 16.2919 45.5795 15.9599C46.5285 14.9159 47.3355 14.0609 47.9535 13.3489C48.5705 12.6369 48.9505 12.3049 49.1405 12.3519C49.2355 12.3519 49.2825 12.4939 49.2355 12.7319C49.1885 12.9689 48.9985 13.397 48.7605 13.919C48.5235 14.489 48.1435 15.2009 47.6685 16.0549C47.1465 16.9569 46.5285 18.0009 45.7225 19.2359C45.2005 20.0429 44.5835 21.04 43.9665 22.226C43.3015 23.413 42.6375 24.647 41.9255 25.929C41.2135 27.258 40.5015 28.587 39.8365 29.916C39.1245 31.245 38.5075 32.479 37.9375 33.619C37.3685 34.758 36.8935 35.755 36.5135 36.61C36.0865 37.464 35.8485 38.081 35.7065 38.414C35.5635 38.841 35.4215 39.316 35.3265 39.743C35.1835 40.218 35.1835 40.645 35.2795 41.024C35.3265 41.451 35.5645 41.7839 35.8965 42.0679C36.2285 42.3529 36.7505 42.5429 37.4625 42.638C37.3675 42.305 37.3195 41.9729 37.2725 41.6409C37.2255 41.3089 37.2725 40.976 37.3195 40.55C37.3675 40.123 37.4625 39.695 37.6995 39.22C38.0315 38.461 38.6015 37.369 39.3605 35.897C40.1205 34.426 40.9745 32.8119 41.9715 31.0549C42.9215 29.2989 43.9175 27.4 45.0095 25.454C46.0535 23.508 47.0505 21.6559 47.9525 19.8519C48.8545 18.0479 49.6615 16.387 50.3735 14.915C51.0855 13.443 51.5605 12.304 51.7975 11.497C51.8455 11.354 51.7975 11.212 51.7505 11.022C51.7035 10.88 51.5615 10.6899 51.4185 10.5469C51.2285 10.4039 50.9915 10.2619 50.7535 10.1669C50.4685 10.0719 50.1365 10.0719 49.7565 10.1199C49.5665 10.1669 49.1865 10.453 48.5695 11.069C47.9525 11.686 47.1935 12.4459 46.2915 13.3949C45.3895 14.3919 44.3455 15.483 43.2535 16.67C42.1615 17.904 41.0225 19.186 39.9305 20.467C38.7915 21.749 37.6995 23.03 36.6075 24.264C35.5155 25.546 34.5655 26.685 33.7115 27.682C32.8095 28.679 32.0975 29.5329 31.5275 30.1979C30.9585 30.8629 30.6255 31.242 30.5305 31.385C30.5775 31.338 30.7675 30.91 31.1475 30.151C31.5265 29.392 32.0015 28.442 32.5715 27.35C33.1415 26.259 33.7585 25.024 34.4225 23.695C35.0395 22.413 35.7045 21.132 36.3215 19.945C36.9385 18.758 37.4615 17.666 37.9835 16.717C38.4585 15.815 38.7905 15.1509 38.9805 14.8179C39.1705 14.4859 39.4555 13.964 39.7875 13.252C40.1205 12.587 40.4525 11.8279 40.8315 10.9739C41.2115 10.1669 41.5905 9.26496 41.9705 8.36296C42.3505 7.46096 42.7295 6.65397 43.0625 5.84697C43.3945 5.03997 43.6795 4.37595 43.9165 3.75895C44.1535 3.18895 44.2965 2.80994 44.3435 2.57194C44.5325 2.04994 44.4385 1.47996 44.0585 0.957958C43.6785 0.435958 43.1085 0.103953 42.3025 0.00895304C41.9225 -0.038047 41.4475 0.103961 40.8305 0.341961C40.2135 0.578961 39.4535 1.14894 38.5515 1.95594C37.6495 2.80994 36.5575 3.99697 35.2765 5.56297C33.9945 7.12997 32.4275 9.17096 30.6725 11.687C30.1025 12.494 29.4855 13.443 28.8205 14.44C28.1085 15.437 27.4445 16.4819 26.7325 17.5729C26.0205 18.6649 25.3085 19.8039 24.5965 20.8959C23.8845 21.9879 23.2205 23.0799 22.5555 24.1239C21.0365 26.5439 19.4705 29.0609 17.9035 31.6239C17.8555 31.6719 18.0455 31.3399 18.4725 30.5329C18.8525 29.7739 19.3745 28.7289 19.9915 27.4479C20.6085 26.1659 21.3205 24.7419 22.1275 23.0809C22.9345 21.4669 23.6935 19.853 24.5005 18.192C25.2605 16.53 25.9725 14.964 26.6365 13.492C27.2535 12.021 27.7755 10.739 28.1555 9.74195C28.5355 8.74496 28.8205 7.89096 28.9625 7.22596C29.1045 6.56096 29.1995 6.03895 29.2475 5.61195C29.2945 5.23295 29.2475 4.94695 29.2005 4.75795C29.1525 4.56795 29.0575 4.42497 29.0105 4.32997C28.9635 4.23497 28.8685 4.09297 28.7255 3.90297C28.5835 3.76097 28.3935 3.57096 28.1565 3.38096C27.9195 3.23896 27.5865 3.09596 27.1595 2.95396C26.7325 2.85896 26.1625 2.81196 25.5455 2.81196C25.1185 2.81196 24.4535 2.95396 23.5515 3.23896C22.6495 3.52396 21.6055 3.95094 20.4185 4.51994C19.2315 5.08994 17.9025 5.80196 16.4785 6.60896C15.0545 7.41596 13.6305 8.36495 12.1585 9.45695C10.6875 10.549 9.26254 11.7829 7.83954 13.1119C6.41554 14.4889 5.08653 15.961 3.89953 17.574C1.66853 20.517 0.434529 23.128 0.102529 25.359C-0.230471 27.59 0.244538 29.5839 1.57354 31.3399C2.28554 32.2409 3.04553 32.859 3.94753 33.096C4.80153 33.381 5.56153 33.428 6.17853 33.285C6.79553 33.143 7.22252 32.9059 7.46052 32.6679C7.69752 32.43 7.79252 32.2399 7.79252 32.1459C7.79252 32.0989 7.79252 32.0029 7.79252 31.9559C7.74552 31.9089 7.74552 31.8609 7.74552 31.8139V31.5809H7.74253Z" fill="black"/>
<path fill-rule="evenodd" clip-rule="evenodd" d="M75.5759 23.5514C75.8129 23.1714 76.0029 22.7914 76.1929 22.3644C76.3829 21.9854 76.5729 21.6524 76.7149 21.3204C76.8569 20.9874 76.9049 20.7984 76.9519 20.7034C76.9989 20.6554 76.8569 20.5134 76.6189 20.3704C76.3819 20.2284 76.0499 20.1814 75.7169 20.2754C75.4799 20.3224 75.1949 20.5124 74.9579 20.8444C74.6729 21.1774 74.4359 21.5564 74.1989 21.9844C73.9609 22.4114 73.7239 22.8384 73.5819 23.2654C73.4389 23.6924 73.2969 24.0254 73.2489 24.2624C73.2019 24.3574 73.2489 24.4994 73.3439 24.6424C73.3919 24.8324 73.5339 24.9744 73.6769 25.0694C73.8199 25.1644 73.9619 25.1644 74.1989 25.1164C74.4359 25.0694 74.6729 24.9264 74.9579 24.5944C75.1489 24.3114 75.3389 23.9794 75.5759 23.5514Z" fill="black"/>
<path fill-rule="evenodd" clip-rule="evenodd" d="M70.0214 37.1249C70.1164 36.6979 70.3064 36.0809 70.5434 35.3689C70.7814 34.6579 71.0654 33.8979 71.3984 33.0429C71.7304 32.1889 72.1104 31.3809 72.4424 30.5749C72.7754 29.8149 73.1074 29.1509 73.3924 28.5329C73.6294 27.9639 73.8194 27.5839 73.9144 27.3459C73.9614 27.1559 73.9144 27.0139 73.8194 26.8709C73.7244 26.7279 73.5824 26.6339 73.4394 26.5379C73.2494 26.4429 73.0594 26.3479 72.9174 26.3009C72.7754 26.2539 72.6334 26.2539 72.5384 26.3009C72.4914 26.3479 72.2534 26.6339 71.9214 27.2509C71.5884 27.8679 71.2094 28.5799 70.7824 29.4809C70.3554 30.3829 69.9284 31.3329 69.5484 32.3769C69.1214 33.4209 68.8364 34.4179 68.6464 35.3199C68.4564 36.2219 68.4094 37.0289 68.5514 37.6459C68.6934 38.3109 69.0734 38.6899 69.6904 38.7849C70.2604 38.8799 70.8294 38.7379 71.3994 38.3579C71.9214 38.0259 72.4914 37.5509 73.0134 36.9339C73.5354 36.3639 74.0574 35.6999 74.5794 34.9879C75.1014 34.2759 75.5764 33.6589 76.0034 33.0419H75.1014C74.3424 34.0389 73.7254 34.8459 73.2034 35.4629C72.6814 36.0799 72.1594 36.6019 71.5894 37.0769C71.0204 37.5989 70.5454 37.8359 70.1654 37.8359C69.9744 37.8369 69.9264 37.5999 70.0214 37.1249Z" fill="black"/>
<path fill-rule="evenodd" clip-rule="evenodd" d="M60.3385 33.0428C60.8135 32.3308 61.2885 31.6188 61.7145 30.9538C62.0475 30.3848 62.4265 29.8148 62.8065 29.2448C63.1855 28.7228 63.4715 28.2958 63.7085 27.9638C63.9455 28.3908 64.2305 28.5808 64.6575 28.5808C65.0375 28.5808 65.3225 28.5328 65.4645 28.4378C64.9425 29.4348 64.4675 30.4318 64.0885 31.3338C63.7565 32.1408 63.4245 32.9948 63.1395 33.8018C62.8545 34.6568 62.6645 35.4158 62.6175 36.0328C62.5695 36.9818 62.6175 37.6938 62.8075 38.1208C62.9495 38.5958 63.4245 38.8328 64.1365 38.8328C64.4695 38.8328 64.8015 38.7378 65.2285 38.5008C65.6085 38.2628 65.9875 37.9788 66.4155 37.5988C66.7955 37.2658 67.1755 36.8398 67.5545 36.4118C67.9345 35.9848 68.2665 35.6048 68.5985 35.1778C68.8355 34.8928 69.0255 34.6078 69.2155 34.3708C69.4045 34.1338 69.5945 33.8958 69.7375 33.7058C69.8805 33.4688 70.0225 33.2788 70.1645 33.0408H69.2625C69.1205 33.2308 69.0255 33.4208 68.8825 33.5628C68.6455 33.9428 68.3135 34.3228 67.9805 34.7498C67.6955 35.0828 67.4115 35.4618 67.0785 35.7948C66.7465 36.1738 66.4615 36.5058 66.1295 36.7918C65.7965 37.1238 65.4645 37.3618 65.1325 37.5518C64.8005 37.7408 64.5635 37.8358 64.3255 37.8358C64.0885 37.8358 64.0415 37.5518 64.1835 36.9818C64.3255 36.4118 64.5635 35.6998 64.8955 34.7978C65.2285 33.8958 65.6545 32.9458 66.1295 31.8548C66.6045 30.8108 67.0785 29.8138 67.5535 28.8168C67.7905 28.2948 67.8865 27.9148 67.8385 27.7248C67.7435 27.5818 67.5535 27.4878 67.3165 27.4878C67.0315 27.5348 66.6995 27.5828 66.3675 27.6768C65.9875 27.8198 65.6555 27.8668 65.3235 27.9138C64.9915 27.9618 64.7535 27.9138 64.6115 27.7718C64.4215 27.6298 64.3745 27.3448 64.5165 26.9178C64.5645 26.7748 64.6595 26.5378 64.8495 26.2528C64.9925 26.0158 65.1825 25.7308 65.3245 25.4458C65.4665 25.2088 65.6565 24.9708 65.7995 24.7338C65.9425 24.5438 65.9895 24.4488 65.9895 24.4008C65.9895 24.1638 65.9425 23.9268 65.7995 23.7368C65.6565 23.5468 65.4665 23.3568 65.3245 23.2148C65.1345 23.0728 64.9445 22.9778 64.8025 22.9298C64.6125 22.8828 64.5175 22.8828 64.4695 22.9298C64.2325 23.0728 63.9475 23.3568 63.7105 23.6888C63.4255 24.0218 63.1885 24.4008 63.0455 24.8288C62.9025 25.2558 62.8085 25.7298 62.8085 26.1578C62.8085 26.5858 62.9505 27.0128 63.1875 27.3918C62.8555 27.9138 62.4755 28.4358 62.0965 29.0058C61.7635 29.5278 61.3365 30.0968 60.9095 30.8098C60.4825 31.5218 59.9605 32.2338 59.4375 33.0408H60.3385V33.0428Z" fill="black"/>
<path fill-rule="evenodd" clip-rule="evenodd" d="M54.1678 30.1948C53.8358 30.7168 53.5028 31.2868 53.0758 31.9038C52.6488 32.5208 52.1738 33.1848 51.6518 33.8498C51.1298 34.5618 50.6548 35.1788 50.1328 35.7008C49.6108 36.2698 49.1838 36.7448 48.7568 37.0768C48.3288 37.4568 47.9498 37.6468 47.6178 37.6468C47.5228 37.6468 47.4748 37.5998 47.4748 37.4568C47.4748 37.2198 47.5698 36.7918 47.7598 36.1748C47.9498 35.5578 48.2348 34.8928 48.5668 34.1338C48.8988 33.3738 49.2788 32.5678 49.7058 31.7608C50.1328 30.9528 50.6078 30.1938 51.0818 29.4818C51.5568 28.8178 52.0308 28.2488 52.5538 27.8208C53.0758 27.3938 53.5508 27.1558 53.9778 27.1558C54.2148 27.1558 54.3578 27.2508 54.4998 27.4408C54.5948 27.6308 54.6898 27.8678 54.7368 28.1048C54.7848 28.3898 54.8318 28.7218 54.8318 29.0548C54.6898 29.2928 54.4998 29.6728 54.1678 30.1948ZM54.3098 37.2198C54.3568 36.7928 54.4988 36.2698 54.7368 35.6538C54.9268 35.0368 55.1648 34.3718 55.4968 33.6118C55.7818 32.8528 56.0668 32.1408 56.3988 31.4278C56.6838 30.7158 56.9688 30.0988 57.2058 29.5298C57.4428 29.0078 57.5858 28.6278 57.6808 28.4378C57.7278 28.2488 57.6808 28.1048 57.5858 27.9628C57.4908 27.8198 57.3488 27.7258 57.2058 27.6308C57.0158 27.5358 56.8258 27.4408 56.6838 27.3928C56.5408 27.3458 56.3988 27.3458 56.3038 27.3928C56.2568 27.4408 56.0668 27.7258 55.6868 28.2948C55.6398 27.8678 55.4498 27.4408 55.1648 26.9658C54.8318 26.5388 54.2148 26.3008 53.3138 26.3008C52.2218 26.3008 51.2248 26.6808 50.3228 27.4408C49.4208 28.1998 48.6138 29.1018 47.9488 30.1938C47.2368 31.2858 46.7148 32.3778 46.3828 33.5638C46.0028 34.7508 45.8128 35.7478 45.8608 36.5548C45.9078 37.5518 46.2398 38.2158 46.8578 38.5488C47.3328 38.7858 47.8548 38.7858 48.4718 38.5018C49.0888 38.2168 49.6588 37.7418 50.2758 37.1248C50.8928 36.5078 51.4628 35.7958 52.0798 34.9888C52.6968 34.1818 53.2188 33.3748 53.6938 32.5678C53.4088 33.2798 53.1718 33.9918 52.9818 34.7038C52.7918 35.4158 52.6968 36.0808 52.6968 36.6498C52.6488 37.2198 52.7438 37.6938 52.9818 38.0738C53.1708 38.5008 53.5038 38.7388 54.0258 38.7858C54.5948 38.8808 55.1648 38.7388 55.7338 38.3588C56.2558 38.0268 56.8258 37.5518 57.3478 36.9348C57.8698 36.3648 58.3918 35.7008 58.9138 34.9888C59.4358 34.2768 59.9108 33.6598 60.3378 33.0428H59.4358C58.6768 34.0398 58.0598 34.8468 57.5368 35.4638C57.0148 36.0808 56.4928 36.6028 55.9228 37.0778C55.3528 37.5998 54.8788 37.8368 54.4988 37.8368C54.3098 37.8368 54.2628 37.6478 54.3098 37.2198Z" fill="black"/>
<path fill-rule="evenodd" clip-rule="evenodd" d="M82.6962 30.1948C82.3632 30.7168 82.0312 31.2868 81.6042 31.9038C81.1772 32.5208 80.7032 33.1848 80.1802 33.8498C79.6582 34.5618 79.1831 35.1788 78.6611 35.7008C78.1391 36.2698 77.7122 36.7448 77.2852 37.0768C76.8582 37.4568 76.4782 37.6468 76.1462 37.6468C76.0512 37.6468 76.0032 37.5998 76.0032 37.4568C76.0032 37.2198 76.0982 36.7918 76.2882 36.1748C76.4772 35.5578 76.7632 34.8928 77.0952 34.1338C77.4282 33.3738 77.8071 32.5678 78.2341 31.7608C78.6611 30.9528 79.1362 30.1938 79.6102 29.4818C80.0852 28.8178 80.5602 28.2488 81.0822 27.8208C81.6042 27.3938 82.0792 27.1558 82.5062 27.1558C82.7432 27.1558 82.8862 27.2508 83.0282 27.4408C83.1232 27.6308 83.2182 27.8678 83.2652 28.1048C83.3122 28.3898 83.3602 28.7218 83.3602 29.0548C83.2182 29.2928 83.0282 29.6728 82.6962 30.1948ZM82.8382 37.2198C82.8862 36.7928 83.0282 36.2698 83.2652 35.6538C83.4552 35.0368 83.6922 34.3718 84.0252 33.6118C84.3102 32.8528 84.5942 32.1408 84.9262 31.4278C85.2112 30.7158 85.4962 30.0988 85.7332 29.5298C85.9712 29.0078 86.1131 28.6278 86.2081 28.4378C86.2551 28.2488 86.2081 28.1048 86.1131 27.9628C86.0181 27.8198 85.8762 27.7258 85.7332 27.6308C85.5432 27.5358 85.3542 27.4408 85.2112 27.3928C85.0682 27.3458 84.9262 27.3458 84.8312 27.3928C84.7842 27.4408 84.5942 27.7258 84.2142 28.2948C84.1662 27.8678 83.9762 27.4408 83.6922 26.9658C83.3592 26.5388 82.7432 26.3008 81.8412 26.3008C80.7492 26.3008 79.7521 26.6808 78.8501 27.4408C77.9481 28.1998 77.1412 29.1018 76.4762 30.1938C75.7642 31.2858 75.2422 32.3778 74.9102 33.5638C74.5302 34.7508 74.3402 35.7478 74.3882 36.5548C74.4352 37.5518 74.7671 38.2158 75.3851 38.5488C75.8601 38.7858 76.3822 38.7858 76.9992 38.5018C77.6162 38.2168 78.1861 37.7418 78.8031 37.1248C79.4201 36.5078 79.9902 35.7958 80.6072 34.9888C81.2242 34.1818 81.7461 33.3748 82.2211 32.5678C81.9361 33.2798 81.6992 33.9918 81.5092 34.7038C81.3192 35.4158 81.2242 36.0808 81.2242 36.6498C81.1772 37.2198 81.2712 37.6938 81.5092 38.0738C81.6992 38.5008 82.0311 38.7388 82.5531 38.7858C83.1221 38.8808 83.6922 38.7388 84.2622 38.3588C84.7842 38.0268 85.3541 37.5518 85.8761 36.9348C86.3981 36.3648 86.9202 35.7008 87.4422 34.9888C87.9642 34.2768 88.4392 33.6598 88.8662 33.0428H87.9642C87.2042 34.0398 86.5882 34.8468 86.0652 35.4638C85.5422 36.0808 85.0212 36.6028 84.4512 37.0778C83.8812 37.5998 83.4071 37.8368 83.0271 37.8368C82.8381 37.8368 82.7912 37.6478 82.8382 37.2198Z" fill="black"/>
</g>
<defs>
<clipPath id="clip0_0_1">
<rect width="1920" height="5356" fill="white" transform="translate(-861 -9)"/>
</clipPath>
</defs>
</svg>
