<svg width="14" height="16" viewBox="0 0 14 16" fill="none" xmlns="http://www.w3.org/2000/svg">
<mask id="path-1-outside-1_216_1456" maskUnits="userSpaceOnUse" x="-0.0488281" y="-0.640625" width="14" height="16" fill="black">
<rect fill="white" x="-0.0488281" y="-0.640625" width="14" height="16"/>
<path fill-rule="evenodd" clip-rule="evenodd" d="M13.6019 6.29553V3.8323C12.7278 3.73478 11.9094 3.35747 11.2754 2.75681C10.6024 2.11927 10.18 1.27066 10.082 0.359375H7.93748L7.91507 10.582C7.91507 11.8362 6.78252 12.8243 5.50006 12.8243C4.88432 12.8243 4.2938 12.5851 3.8584 12.1593C3.42301 11.7335 3.1784 11.156 3.1784 10.5538C3.1784 9.95163 3.42301 9.37411 3.8584 8.94831C4.2938 8.5225 4.88432 8.28328 5.50006 8.28328C5.57147 8.28328 5.64051 8.29252 5.70961 8.30175C5.73343 8.30494 5.75726 8.30813 5.7812 8.31093V6.11866C5.75902 6.1173 5.73688 6.11579 5.71473 6.11428C5.64362 6.10943 5.57246 6.10457 5.50006 6.10457C4.60037 6.10457 3.72089 6.36549 2.97283 6.85432C2.22477 7.34315 1.64173 8.03795 1.29744 8.85084C0.953143 9.66374 0.86306 10.5582 1.03858 11.4212C1.2141 12.2842 1.64734 13.0769 2.28351 13.699C2.91968 14.3212 3.73022 14.7449 4.61262 14.9165C5.49501 15.0882 6.40964 15.0001 7.24084 14.6634C8.07204 14.3267 8.78248 13.7565 9.28232 13.0249C9.78216 12.2933 10.0489 11.4332 10.0489 10.5533V4.53419C10.4125 5.07721 10.9086 5.52314 11.4925 5.83174C12.0763 6.14033 12.7296 6.30188 13.3933 6.30178C13.4628 6.30148 13.5324 6.29939 13.6019 6.29553Z"/>
</mask>
<path fill-rule="evenodd" clip-rule="evenodd" d="M13.6019 6.29553V3.8323C12.7278 3.73478 11.9094 3.35747 11.2754 2.75681C10.6024 2.11927 10.18 1.27066 10.082 0.359375H7.93748L7.91507 10.582C7.91507 11.8362 6.78252 12.8243 5.50006 12.8243C4.88432 12.8243 4.2938 12.5851 3.8584 12.1593C3.42301 11.7335 3.1784 11.156 3.1784 10.5538C3.1784 9.95163 3.42301 9.37411 3.8584 8.94831C4.2938 8.5225 4.88432 8.28328 5.50006 8.28328C5.57147 8.28328 5.64051 8.29252 5.70961 8.30175C5.73343 8.30494 5.75726 8.30813 5.7812 8.31093V6.11866C5.75902 6.1173 5.73688 6.11579 5.71473 6.11428C5.64362 6.10943 5.57246 6.10457 5.50006 6.10457C4.60037 6.10457 3.72089 6.36549 2.97283 6.85432C2.22477 7.34315 1.64173 8.03795 1.29744 8.85084C0.953143 9.66374 0.86306 10.5582 1.03858 11.4212C1.2141 12.2842 1.64734 13.0769 2.28351 13.699C2.91968 14.3212 3.73022 14.7449 4.61262 14.9165C5.49501 15.0882 6.40964 15.0001 7.24084 14.6634C8.07204 14.3267 8.78248 13.7565 9.28232 13.0249C9.78216 12.2933 10.0489 11.4332 10.0489 10.5533V4.53419C10.4125 5.07721 10.9086 5.52314 11.4925 5.83174C12.0763 6.14033 12.7296 6.30188 13.3933 6.30178C13.4628 6.30148 13.5324 6.29939 13.6019 6.29553Z" fill="#222222"/>
<path d="M13.6019 3.8323H13.8019V3.65337L13.624 3.63353L13.6019 3.8323ZM13.6019 6.29553L13.613 6.49522L13.8019 6.48472V6.29553H13.6019ZM11.2754 2.75681L11.1378 2.902L11.2754 2.75681ZM10.082 0.359375L10.2809 0.337994L10.2617 0.159375H10.082V0.359375ZM7.93748 0.359375V0.159375H7.73792L7.73748 0.358937L7.93748 0.359375ZM7.91507 10.582L7.71507 10.5816V10.582H7.91507ZM3.8584 12.1593L3.71856 12.3023H3.71856L3.8584 12.1593ZM3.8584 8.94831L3.71856 8.80532H3.71856L3.8584 8.94831ZM5.70961 8.30175L5.73612 8.10352H5.73612L5.70961 8.30175ZM5.7812 8.31093L5.75788 8.50957L5.9812 8.53578V8.31093H5.7812ZM5.7812 6.11866H5.9812V5.93058L5.79347 5.91904L5.7812 6.11866ZM5.71473 6.11428L5.70112 6.31381H5.70112L5.71473 6.11428ZM2.97283 6.85432L3.08224 7.02174L2.97283 6.85432ZM1.29744 8.85084L1.11327 8.77284H1.11327L1.29744 8.85084ZM1.03858 11.4212L0.842592 11.4611H0.842592L1.03858 11.4212ZM2.28351 13.699L2.14367 13.842L2.28351 13.699ZM7.24084 14.6634L7.31593 14.8487L7.24084 14.6634ZM9.28232 13.0249L9.11718 12.912L9.28232 13.0249ZM10.0489 4.53419L10.2151 4.42292L9.84895 3.87596V4.53419H10.0489ZM11.4925 5.83174L11.5859 5.65492L11.5859 5.65492L11.4925 5.83174ZM13.3933 6.30178L13.3933 6.50179L13.3941 6.50178L13.3933 6.30178ZM13.4019 3.8323V6.29553H13.8019V3.8323H13.4019ZM11.1378 2.902C11.8039 3.53299 12.6629 3.92878 13.5797 4.03106L13.624 3.63353C12.7927 3.54077 12.0149 3.18196 11.4129 2.61162L11.1378 2.902ZM9.88317 0.380756C9.98629 1.33987 10.4308 2.23219 11.1378 2.902L11.4129 2.61162C10.774 2.00634 10.3737 1.20145 10.2809 0.337994L9.88317 0.380756ZM7.93748 0.559375H10.082V0.159375H7.93748V0.559375ZM8.11507 10.5824L8.13748 0.359813L7.73748 0.358937L7.71507 10.5816L8.11507 10.5824ZM5.50006 13.0243C6.87494 13.0243 8.11507 11.9639 8.11507 10.582H7.71507C7.71507 11.7085 6.69009 12.6243 5.50006 12.6243V13.0243ZM3.71856 12.3023C4.19179 12.7651 4.83269 13.0243 5.50006 13.0243V12.6243C4.93594 12.6243 4.3958 12.4051 3.99824 12.0163L3.71856 12.3023ZM2.9784 10.5538C2.9784 11.2105 3.24519 11.8394 3.71856 12.3023L3.99824 12.0163C3.60083 11.6277 3.3784 11.1015 3.3784 10.5538H2.9784ZM3.71856 8.80532C3.24519 9.26828 2.9784 9.89713 2.9784 10.5538H3.3784C3.3784 10.0061 3.60083 9.47995 3.99824 9.09129L3.71856 8.80532ZM5.50006 8.08328C4.83269 8.08328 4.19179 8.34251 3.71856 8.80532L3.99824 9.09129C4.3958 8.70249 4.93594 8.48328 5.50006 8.48328V8.08328ZM5.73612 8.10352C5.669 8.09454 5.58691 8.08328 5.50006 8.08328V8.48328C5.55602 8.48328 5.61203 8.49049 5.68311 8.49999L5.73612 8.10352ZM5.80451 8.1123C5.78244 8.10971 5.7602 8.10674 5.73612 8.10352L5.68311 8.49999C5.70667 8.50314 5.73209 8.50654 5.75788 8.50957L5.80451 8.1123ZM5.5812 6.11866V8.31093H5.9812V6.11866H5.5812ZM5.70112 6.31381C5.72316 6.31532 5.74597 6.31687 5.76893 6.31828L5.79347 5.91904C5.77207 5.91772 5.7506 5.91626 5.72834 5.91474L5.70112 6.31381ZM5.50006 6.30457C5.56454 6.30457 5.62896 6.30889 5.70112 6.31381L5.72834 5.91474C5.65829 5.90996 5.58038 5.90457 5.50006 5.90457V6.30457ZM3.08224 7.02174C3.79754 6.55432 4.63895 6.30457 5.50006 6.30457V5.90457C4.5618 5.90457 3.64425 6.17665 2.86343 6.68689L3.08224 7.02174ZM1.4816 8.92884C1.81021 8.15299 2.36699 7.48913 3.08224 7.02174L2.86343 6.68689C2.08256 7.19717 1.47326 7.9229 1.11327 8.77284L1.4816 8.92884ZM1.23457 11.3813C1.06712 10.5581 1.15302 9.70465 1.4816 8.92884L1.11327 8.77284C0.753269 9.62283 0.659001 10.5584 0.842592 11.4611L1.23457 11.3813ZM2.42335 13.556C1.81547 12.9615 1.40202 12.2046 1.23457 11.3813L0.842592 11.4611C1.02618 12.3637 1.47921 13.1922 2.14367 13.842L2.42335 13.556ZM4.65081 14.7202C3.80636 14.5559 3.03128 14.1506 2.42335 13.556L2.14367 13.842C2.80809 14.4918 3.65408 14.9338 4.57442 15.1129L4.65081 14.7202ZM7.16575 14.478C6.37054 14.8001 5.49528 14.8845 4.65081 14.7202L4.57442 15.1129C5.49475 15.2919 6.44874 15.2 7.31593 14.8487L7.16575 14.478ZM9.11718 12.912C8.63985 13.6107 7.96092 14.1559 7.16575 14.478L7.31593 14.8487C8.18316 14.4974 8.92511 13.9022 9.44746 13.1377L9.11718 12.912ZM9.84895 10.5533C9.84895 11.3926 9.59448 12.2135 9.11718 12.912L9.44746 13.1377C9.96984 12.3731 10.2489 11.4737 10.2489 10.5533H9.84895ZM9.84895 4.53419V10.5533H10.2489V4.53419H9.84895ZM11.5859 5.65492C11.031 5.36164 10.56 4.9381 10.2151 4.42292L9.88275 4.64546C10.2649 5.21632 10.7862 5.68465 11.399 6.00856L11.5859 5.65492ZM13.3932 6.10178C12.762 6.10187 12.1408 5.94821 11.5859 5.65492L11.399 6.00856C12.0118 6.33246 12.6972 6.50188 13.3933 6.50178L13.3932 6.10178ZM13.5907 6.09584C13.5247 6.09951 13.4586 6.1015 13.3924 6.10179L13.3941 6.50178C13.4671 6.50146 13.5401 6.49927 13.613 6.49522L13.5907 6.09584Z" fill="white" mask="url(#path-1-outside-1_216_1456)"/>
</svg>
